<svg width="58" height="65" viewBox="0 0 58 65" fill="none" xmlns="http://www.w3.org/2000/svg">
<path fill-rule="evenodd" clip-rule="evenodd" d="M0 6C0 2.68629 2.68629 0 6 0H52C55.3137 0 58 2.68629 58 6V59C58 62.3137 55.3137 65 52 65H6C2.68629 65 0 62.3137 0 59V6ZM6 43C6 39.6863 8.68629 37 12 37H46C49.3137 37 52 39.6863 52 43V56C52 59.3137 49.3137 62 46 62H12C8.68629 62 6 59.3137 6 56V43ZM12 3C8.68629 3 6 5.68629 6 9V22C6 25.3137 8.68629 28 12 28H46C49.3137 28 52 25.3137 52 22V9C52 5.68629 49.3137 3 46 3H12ZM1 9C1 8.44771 1.44772 8 2 8H4C4.55228 8 5 8.44771 5 9V11C5 11.5523 4.55228 12 4 12H2C1.44772 12 1 11.5523 1 11V9ZM2 14C1.44772 14 1 14.4477 1 15V17C1 17.5523 1.44772 18 2 18H4C4.55228 18 5 17.5523 5 17V15C5 14.4477 4.55228 14 4 14H2ZM1 21C1 20.4477 1.44772 20 2 20H4C4.55228 20 5 20.4477 5 21V23C5 23.5523 4.55228 24 4 24H2C1.44772 24 1 23.5523 1 23V21ZM2 26C1.44772 26 1 26.4477 1 27V29C1 29.5523 1.44772 30 2 30H4C4.55228 30 5 29.5523 5 29V27C5 26.4477 4.55228 26 4 26H2ZM1 33C1 32.4477 1.44772 32 2 32H4C4.55228 32 5 32.4477 5 33V35C5 35.5523 4.55228 36 4 36H2C1.44772 36 1 35.5523 1 35V33ZM2 38C1.44772 38 1 38.4477 1 39V41C1 41.5523 1.44772 42 2 42H4C4.55228 42 5 41.5523 5 41V39C5 38.4477 4.55228 38 4 38H2ZM1 45C1 44.4477 1.44772 44 2 44H4C4.55228 44 5 44.4477 5 45V47C5 47.5523 4.55228 48 4 48H2C1.44772 48 1 47.5523 1 47V45ZM2 50C1.44772 50 1 50.4477 1 51V53C1 53.5523 1.44772 54 2 54H4C4.55228 54 5 53.5523 5 53V51C5 50.4477 4.55228 50 4 50H2ZM1 57C1 56.4477 1.44772 56 2 56H4C4.55228 56 5 56.4477 5 57V59C5 59.5523 4.55228 60 4 60H2C1.44772 60 1 59.5523 1 59V57ZM54 8C53.4477 8 53 8.44771 53 9V11C53 11.5523 53.4477 12 54 12H56C56.5523 12 57 11.5523 57 11V9C57 8.44771 56.5523 8 56 8H54ZM53 15C53 14.4477 53.4477 14 54 14H56C56.5523 14 57 14.4477 57 15V17C57 17.5523 56.5523 18 56 18H54C53.4477 18 53 17.5523 53 17V15ZM54 20C53.4477 20 53 20.4477 53 21V23C53 23.5523 53.4477 24 54 24H56C56.5523 24 57 23.5523 57 23V21C57 20.4477 56.5523 20 56 20H54ZM53 27C53 26.4477 53.4477 26 54 26H56C56.5523 26 57 26.4477 57 27V29C57 29.5523 56.5523 30 56 30H54C53.4477 30 53 29.5523 53 29V27ZM54 32C53.4477 32 53 32.4477 53 33V35C53 35.5523 53.4477 36 54 36H56C56.5523 36 57 35.5523 57 35V33C57 32.4477 56.5523 32 56 32H54ZM53 39C53 38.4477 53.4477 38 54 38H56C56.5523 38 57 38.4477 57 39V41C57 41.5523 56.5523 42 56 42H54C53.4477 42 53 41.5523 53 41V39ZM54 44C53.4477 44 53 44.4477 53 45V47C53 47.5523 53.4477 48 54 48H56C56.5523 48 57 47.5523 57 47V45C57 44.4477 56.5523 44 56 44H54ZM53 51C53 50.4477 53.4477 50 54 50H56C56.5523 50 57 50.4477 57 51V53C57 53.5523 56.5523 54 56 54H54C53.4477 54 53 53.5523 53 53V51ZM54 56C53.4477 56 53 56.4477 53 57V59C53 59.5523 53.4477 60 54 60H56C56.5523 60 57 59.5523 57 59V57C57 56.4477 56.5523 56 56 56H54Z" fill="#173630"/>
</svg>
