<?xml version="1.0" standalone="no"?>
<!DOCTYPE svg PUBLIC "-//W3C//DTD SVG 20010904//EN"
 "http://www.w3.org/TR/2001/REC-SVG-20010904/DTD/svg10.dtd">
<svg version="1.0" xmlns="http://www.w3.org/2000/svg"
 width="720.000000pt" height="328.000000pt" viewBox="0 0 720.000000 328.000000"
 preserveAspectRatio="xMidYMid meet">
<metadata>
Created by potrace 1.15, written by Peter Selinger 2001-2017
</metadata>
<g transform="translate(0.000000,328.000000) scale(0.100000,-0.100000)"
fill="#000000" stroke="none">
<path d="M2099 1927 c-57 -37 -79 -95 -79 -205 0 -105 18 -155 69 -192 39 -27
123 -41 184 -29 88 16 87 15 87 144 l0 115 -85 0 -85 0 0 -45 c0 -43 1 -45 30
-45 28 0 30 -3 30 -34 0 -40 -18 -50 -65 -38 -39 10 -65 61 -65 125 0 103 48
145 148 131 l50 -6 11 38 c15 55 -1 64 -109 64 -74 0 -92 -3 -121 -23z"/>
<path d="M2760 1720 l0 -220 50 0 50 0 0 93 0 92 55 -3 54 -4 3 -86 3 -87 50
0 50 0 3 218 2 217 -55 0 -55 0 0 -80 0 -80 -55 0 -55 0 0 80 0 80 -50 0 -50
0 0 -220z"/>
<path d="M3424 1927 c-2 -7 -3 -105 -2 -217 l3 -205 38 -3 c21 -2 37 1 37 7 0
7 9 7 28 0 36 -14 105 -14 131 0 37 20 52 66 50 148 -4 122 -34 158 -128 152
l-51 -4 0 68 0 67 -50 0 c-32 0 -52 -5 -56 -13z"/>
<path d="M3830 1720 l0 -220 25 0 c25 0 25 1 25 84 l0 83 74 5 c114 7 160 48
159 139 -1 97 -49 129 -193 129 l-90 0 0 -220z m209 144 c26 -33 27 -84 2
-115 -16 -19 -30 -24 -90 -27 l-71 -4 0 86 0 86 69 0 c63 0 71 -2 90 -26z"/>
<path d="M2560 1846 c0 -38 -3 -45 -25 -50 -21 -5 -25 -12 -25 -41 0 -31 3
-35 25 -35 25 0 25 -1 25 -85 0 -78 2 -88 25 -111 22 -22 32 -25 83 -22 l57 3
3 38 c3 31 0 37 -17 37 -45 0 -51 9 -51 76 l0 64 36 0 35 0 -3 43 c-3 39 -5
42 -35 45 -31 3 -33 6 -33 43 l0 39 -50 0 -50 0 0 -44z"/>
<path d="M2394 1797 c-2 -7 -3 -76 -2 -152 l3 -140 44 -3 c28 -2 47 1 52 10
14 21 11 272 -3 286 -16 16 -87 15 -94 -1z"/>
<path d="M3123 1803 c-9 -3 -13 -37 -13 -119 0 -131 13 -170 58 -180 15 -3 34
-8 43 -10 8 -2 36 2 62 10 26 8 47 10 47 5 0 -5 16 -9 35 -9 l36 0 -3 153 -3
152 -45 0 -45 0 -3 -107 c-3 -104 -3 -108 -27 -114 -13 -3 -29 -3 -34 1 -7 4
-11 48 -11 110 0 85 -3 104 -16 109 -18 7 -63 7 -81 -1z"/>
<path d="M4225 1804 c-11 -3 -30 -7 -42 -10 -17 -3 -23 -12 -23 -30 0 -19 4
-24 18 -20 82 23 132 13 132 -28 0 -22 -5 -24 -60 -28 -79 -6 -110 -32 -110
-95 0 -61 32 -93 94 -93 25 0 56 4 70 10 17 6 26 6 26 0 0 -6 9 -10 20 -10 19
0 20 7 20 115 0 121 -9 156 -44 173 -27 14 -75 21 -101 16z"/>
<path d="M4483 1799 c-45 -13 -69 -48 -72 -106 -1 -37 3 -56 19 -75 14 -18 17
-29 9 -33 -6 -4 -9 -20 -7 -36 3 -21 -2 -35 -19 -51 -39 -36 -30 -99 18 -123
32 -17 144 -20 182 -6 62 24 87 95 49 140 -13 17 -37 25 -94 34 -43 7 -78 17
-78 22 0 6 23 12 51 15 74 8 101 42 98 119 -2 46 0 57 14 59 9 2 17 12 17 23
0 17 -7 19 -64 19 -35 0 -70 2 -78 4 -7 2 -27 0 -45 -5z m138 -316 c20 -20 2
-60 -32 -72 -67 -23 -136 -10 -146 27 -5 19 0 30 18 45 19 15 35 18 86 15 35
-2 68 -9 74 -15z"/>
<path d="M4774 1799 c-55 -16 -78 -51 -82 -130 -7 -119 31 -169 128 -169 78 0
100 8 100 35 0 21 -3 22 -73 17 -79 -5 -89 0 -101 51 l-6 27 95 0 95 0 0 40
c0 50 -22 105 -47 118 -30 16 -76 21 -109 11z"/>
<path d="M5040 1800 c-44 -11 -70 -43 -70 -86 0 -43 30 -71 84 -79 68 -11 76
-15 76 -39 0 -38 -23 -49 -95 -44 -61 4 -65 3 -65 -18 0 -27 17 -34 86 -34 59
0 108 19 118 45 12 33 6 85 -13 104 -10 10 -38 22 -62 26 -72 11 -79 15 -79
41 0 34 40 48 103 36 45 -9 47 -8 47 14 0 13 -7 25 -17 28 -43 11 -80 14 -113
6z"/>
</g>
</svg>
