<svg width="59" height="47" viewBox="0 0 59 47" fill="none" xmlns="http://www.w3.org/2000/svg">
<path d="M46.0984 34.3221C50.3498 30.1379 52.4367 24.7894 51.9237 19.3924C51.4107 13.9955 48.3374 8.96693 43.345 5.35595C38.3526 1.74496 31.8267 -0.169568 25.1289 0.0117907C18.431 0.19315 12.0785 2.45639 7.39677 6.32932C2.715 10.2023 0.0655567 15.3857 0.00119894 20.7983C-0.0631588 26.2109 2.46254 31.4345 7.05135 35.3794C11.6402 39.3242 17.9377 41.6856 24.63 41.9708C31.3223 42.256 37.8924 40.4431 42.9698 36.9102L39.3909 33.5548C35.3844 36.3426 30.1998 37.7732 24.9189 37.5481C19.638 37.3231 14.6686 35.4597 11.0476 32.3468C7.42652 29.2339 5.43348 25.112 5.48427 20.8409C5.53505 16.5698 7.62574 12.4795 11.3201 9.42332C15.0145 6.36718 20.0273 4.58125 25.3126 4.43814C30.5979 4.29503 35.7475 5.80579 39.687 8.65523C43.6265 11.5047 46.0516 15.4727 46.4565 19.7314C46.8613 23.9902 45.2145 28.2107 41.8597 31.5125L46.0984 34.3221Z" fill="#173630"/>
<ellipse cx="13.5" cy="28" rx="2.5" ry="2" fill="#173630"/>
<path d="M39 14C39 12.1435 37.6304 10.363 35.1924 9.05025C32.7544 7.7375 29.4478 7 26 7C22.5522 7 19.2456 7.7375 16.8076 9.05025C14.3696 10.363 13 12.1435 13 14L15.9978 14C15.9978 12.5716 17.0516 11.2017 18.9274 10.1917C20.8031 9.18162 23.3472 8.61419 26 8.61419C28.6528 8.61419 31.1969 9.18162 33.0726 10.1917C34.9484 11.2017 36.0022 12.5716 36.0022 14H39Z" fill="#173630"/>
<line x1="42.6247" y1="31.2191" x2="57.6247" y2="43.2191" stroke="#173630" stroke-width="2"/>
<line x1="39.6247" y1="33.2191" x2="54.6247" y2="45.2191" stroke="#173630" stroke-width="2"/>
<line x1="56.6348" y1="42.685" x2="53.7284" y2="45.7758" stroke="#173630" stroke-width="2"/>
</svg>
