<svg width="89" height="47" viewBox="0 0 89 47" fill="none" xmlns="http://www.w3.org/2000/svg">
<path fill-rule="evenodd" clip-rule="evenodd" d="M86.9658 20.2993C89.4769 21.3004 89.4893 24.8502 86.9853 25.866L36.7486 46.2449C34.78 47.0435 32.627 45.5985 32.6195 43.4737L32.5633 27.3834H37.5643C37.6223 27.3834 37.6797 27.3808 37.7363 27.3758L37.7641 35.1752C37.7713 37.2174 39.7726 38.6569 41.7105 38.0139L76.2933 26.5396C79.0417 25.6278 79.0278 21.7354 76.2731 20.8394L41.6093 9.56528C39.6669 8.93352 37.6759 10.3846 37.6831 12.4268L37.7228 23.5813C37.6706 23.577 37.6177 23.5748 37.5643 23.5748H32.5499L32.478 3.01179C32.4706 0.887038 34.6135 -0.570636 36.5876 0.216327L86.9658 20.2993Z" fill="#173630"/>
<path d="M16.9043 32.3834H28.3301C29.3818 32.3834 30.2344 31.5308 30.2344 30.4791C30.2344 29.4274 29.3818 28.5748 28.3301 28.5748H16.9043C15.8526 28.5748 15 29.4274 15 30.4791C15 31.5308 15.8526 32.3834 16.9043 32.3834Z" fill="#9D9D9D"/>
<path d="M11.9043 20.3834H23.3301C24.3818 20.3834 25.2344 19.5308 25.2344 18.4791C25.2344 17.4274 24.3818 16.5748 23.3301 16.5748H11.9043C10.8526 16.5748 10 17.4274 10 18.4791C10 19.5308 10.8526 20.3834 11.9043 20.3834Z" fill="#9D9D9D"/>
<path d="M1.9043 27.3834H13.3301C14.3818 27.3834 15.2344 26.5308 15.2344 25.4791C15.2344 24.4274 14.3818 23.5748 13.3301 23.5748H1.9043C0.852617 23.5748 0 24.4274 0 25.4791C0 26.5308 0.852617 27.3834 1.9043 27.3834Z" fill="#173630"/>
</svg>
