<?xml version="1.0" encoding="UTF-8"?>
<svg xmlns="http://www.w3.org/2000/svg" xmlns:xlink="http://www.w3.org/1999/xlink" width="199pt" height="57pt" viewBox="0 0 199 57" version="1.1">
<g id="surface1">
<path style=" stroke:none;fill-rule:nonzero;fill:rgb(58.431373%,74.901961%,27.843137%);fill-opacity:1;" d="M 42.746094 10.859375 C 42.714844 10.566406 42.449219 10.433594 42.253906 10.402344 C 42.058594 10.367188 37.769531 10.074219 37.769531 10.074219 C 37.769531 10.074219 34.792969 7.125 34.496094 6.796875 C 34.171875 6.46875 33.546875 6.566406 33.285156 6.632812 C 33.253906 6.632812 32.632812 6.832031 31.617188 7.15625 C 30.667969 4.308594 28.902344 1.6875 25.824219 1.6875 L 25.5625 1.6875 C 24.679688 0.539062 23.597656 0.015625 22.683594 0.015625 C 15.515625 0.0507812 12.109375 8.992188 11.03125 13.546875 C 8.246094 14.398438 6.285156 15.019531 6.023438 15.085938 C 4.484375 15.578125 4.417969 15.609375 4.222656 17.082031 C 4.058594 18.230469 0 49.679688 0 49.679688 L 31.648438 55.609375 L 48.800781 51.90625 C 48.800781 51.875 42.777344 11.15625 42.746094 10.859375 Z M 29.882812 7.714844 C 29.097656 7.976562 28.179688 8.238281 27.199219 8.535156 L 27.199219 7.945312 C 27.199219 6.175781 26.9375 4.734375 26.542969 3.621094 C 28.148438 3.847656 29.226562 5.652344 29.882812 7.714844 Z M 24.613281 3.980469 C 25.039062 5.09375 25.332031 6.667969 25.332031 8.796875 L 25.332031 9.089844 C 23.597656 9.613281 21.699219 10.203125 19.800781 10.792969 C 20.882812 6.730469 22.878906 4.734375 24.613281 3.980469 Z M 22.484375 1.980469 C 22.78125 1.980469 23.109375 2.082031 23.402344 2.277344 C 21.109375 3.359375 18.65625 6.078125 17.609375 11.515625 C 16.101562 11.972656 14.597656 12.433594 13.222656 12.859375 C 14.464844 8.730469 17.347656 1.980469 22.484375 1.980469 Z M 22.484375 1.980469 "/>
<path style=" stroke:none;fill-rule:nonzero;fill:rgb(36.862745%,55.686275%,24.313725%);fill-opacity:1;" d="M 42.253906 10.402344 C 42.058594 10.367188 37.769531 10.074219 37.769531 10.074219 C 37.769531 10.074219 34.792969 7.125 34.496094 6.796875 C 34.367188 6.667969 34.203125 6.601562 34.039062 6.601562 L 31.648438 55.609375 L 48.800781 51.90625 C 48.800781 51.90625 42.777344 11.15625 42.746094 10.890625 C 42.714844 10.597656 42.449219 10.433594 42.253906 10.402344 Z M 42.253906 10.402344 "/>
<path style=" stroke:none;fill-rule:nonzero;fill:rgb(100%,100%,100%);fill-opacity:1;" d="M 25.824219 19.902344 L 23.695312 26.191406 C 23.695312 26.191406 21.832031 25.207031 19.574219 25.207031 C 16.234375 25.207031 16.070312 27.304688 16.070312 27.828125 C 16.070312 30.710938 23.566406 31.792969 23.566406 38.539062 C 23.566406 43.847656 20.195312 47.253906 15.679688 47.253906 C 10.246094 47.253906 7.460938 43.878906 7.460938 43.878906 L 8.902344 39.066406 C 8.902344 39.066406 11.75 41.523438 14.171875 41.523438 C 15.742188 41.523438 16.398438 40.277344 16.398438 39.359375 C 16.398438 35.59375 10.246094 35.429688 10.246094 29.269531 C 10.246094 24.09375 13.976562 19.050781 21.472656 19.050781 C 24.417969 19.082031 25.824219 19.902344 25.824219 19.902344 Z M 25.824219 19.902344 "/>
<path style=" stroke:none;fill-rule:nonzero;fill:rgb(0%,0%,0%);fill-opacity:1;" d="M 68.800781 31.695312 C 67.097656 30.777344 66.214844 29.992188 66.214844 28.910156 C 66.214844 27.535156 67.425781 26.648438 69.355469 26.648438 C 71.582031 26.648438 73.542969 27.566406 73.542969 27.566406 L 75.117188 22.785156 C 75.117188 22.785156 73.675781 21.667969 69.453125 21.667969 C 63.5625 21.667969 59.472656 25.042969 59.472656 29.792969 C 59.472656 32.480469 61.371094 34.542969 63.921875 36.019531 C 65.984375 37.199219 66.703125 38.015625 66.703125 39.261719 C 66.703125 40.539062 65.691406 41.554688 63.757812 41.554688 C 60.910156 41.554688 58.226562 40.082031 58.226562 40.082031 L 56.558594 44.863281 C 56.558594 44.863281 59.046875 46.535156 63.203125 46.535156 C 69.257812 46.535156 73.609375 43.550781 73.609375 38.179688 C 73.644531 35.265625 71.449219 33.234375 68.800781 31.695312 Z M 92.953125 21.636719 C 89.976562 21.636719 87.617188 23.046875 85.820312 25.207031 L 85.71875 25.175781 L 88.304688 11.613281 L 81.5625 11.613281 L 75.019531 46.109375 L 81.761719 46.109375 L 84.019531 34.316406 C 84.902344 29.859375 87.195312 27.109375 89.355469 27.109375 C 90.859375 27.109375 91.449219 28.125 91.449219 29.597656 C 91.449219 30.515625 91.351562 31.660156 91.152344 32.578125 L 88.601562 46.074219 L 95.34375 46.074219 L 97.996094 32.121094 C 98.289062 30.644531 98.484375 28.875 98.484375 27.730469 C 98.453125 23.929688 96.457031 21.636719 92.953125 21.636719 Z M 113.703125 21.636719 C 105.585938 21.636719 100.21875 28.976562 100.21875 37.132812 C 100.21875 42.375 103.460938 46.566406 109.515625 46.566406 C 117.46875 46.566406 122.871094 39.425781 122.871094 31.070312 C 122.871094 26.222656 120.023438 21.636719 113.703125 21.636719 Z M 110.398438 41.390625 C 108.109375 41.390625 107.125 39.425781 107.125 37 C 107.125 33.136719 109.121094 26.8125 112.789062 26.8125 C 115.179688 26.8125 115.964844 28.875 115.964844 30.875 C 115.964844 35.035156 113.964844 41.390625 110.398438 41.390625 Z M 140.117188 21.636719 C 135.570312 21.636719 132.984375 25.632812 132.984375 25.632812 L 132.886719 25.632812 L 133.277344 22.03125 L 127.320312 22.03125 C 127.027344 24.488281 126.503906 28.1875 125.945312 30.972656 L 121.265625 55.671875 L 127.976562 55.671875 L 129.839844 45.683594 L 129.972656 45.683594 C 129.972656 45.683594 131.347656 46.566406 133.933594 46.566406 C 141.851562 46.566406 147.023438 38.441406 147.023438 30.21875 C 147.058594 25.699219 145.027344 21.636719 140.117188 21.636719 Z M 133.671875 41.488281 C 131.902344 41.488281 130.886719 40.507812 130.886719 40.507812 L 132 34.183594 C 132.785156 29.992188 134.980469 27.171875 137.335938 27.171875 C 139.398438 27.171875 140.019531 29.074219 140.019531 30.875 C 140.019531 35.265625 137.433594 41.488281 133.671875 41.488281 Z M 156.679688 11.941406 C 154.519531 11.941406 152.816406 13.644531 152.816406 15.839844 C 152.816406 17.835938 154.09375 19.214844 155.992188 19.214844 L 156.089844 19.214844 C 158.183594 19.214844 159.984375 17.804688 160.050781 15.316406 C 160.050781 13.347656 158.742188 11.941406 156.679688 11.941406 Z M 147.253906 46.074219 L 153.996094 46.074219 L 158.578125 22.160156 L 151.804688 22.160156 M 175.730469 22.128906 L 171.046875 22.128906 L 171.277344 21.015625 C 171.671875 18.722656 173.042969 16.65625 175.269531 16.65625 C 176.480469 16.65625 177.429688 16.984375 177.429688 16.984375 L 178.738281 11.710938 C 178.738281 11.710938 177.5625 11.121094 175.074219 11.121094 C 172.683594 11.121094 170.296875 11.808594 168.460938 13.382812 C 166.171875 15.347656 165.089844 18.164062 164.566406 21.015625 L 164.371094 22.128906 L 161.230469 22.128906 L 160.246094 27.207031 L 163.390625 27.207031 L 159.820312 46.074219 L 166.597656 46.074219 L 170.164062 27.207031 L 174.8125 27.207031 Z M 191.964844 22.160156 C 191.964844 22.160156 187.742188 32.808594 185.84375 38.605469 L 185.746094 38.605469 C 185.613281 36.738281 184.074219 22.160156 184.074219 22.160156 L 176.972656 22.160156 L 181.03125 44.109375 C 181.128906 44.601562 181.0625 44.894531 180.898438 45.222656 C 180.113281 46.730469 178.804688 48.203125 177.234375 49.285156 C 175.957031 50.203125 174.550781 50.792969 173.4375 51.183594 L 175.304688 56.917969 C 176.679688 56.625 179.492188 55.507812 181.914062 53.25 C 184.992188 50.367188 187.839844 45.910156 190.753906 39.851562 L 199 22.160156 Z M 191.964844 22.160156 "/>
</g>
</svg>
