<?xml version="1.0" encoding="UTF-8"?>
<svg xmlns="http://www.w3.org/2000/svg" xmlns:xlink="http://www.w3.org/1999/xlink" width="101pt" height="29pt" viewBox="0 0 101 29" version="1.1">
<g id="surface1">
<path style=" stroke:none;fill-rule:nonzero;fill:rgb(58.431373%,74.901961%,27.843137%);fill-opacity:1;" d="M 21.671875 5.542969 C 21.65625 5.394531 21.523438 5.328125 21.425781 5.3125 C 21.324219 5.292969 19.148438 5.144531 19.148438 5.144531 C 19.148438 5.144531 17.640625 3.636719 17.492188 3.46875 C 17.324219 3.300781 17.007812 3.351562 16.875 3.386719 C 16.859375 3.386719 16.546875 3.488281 16.03125 3.652344 C 15.550781 2.199219 14.65625 0.863281 13.09375 0.863281 L 12.960938 0.863281 C 12.511719 0.273438 11.964844 0.0078125 11.5 0.0078125 C 7.867188 0.0273438 6.140625 4.589844 5.59375 6.917969 C 4.179688 7.351562 3.1875 7.667969 3.054688 7.703125 C 2.273438 7.953125 2.238281 7.96875 2.140625 8.722656 C 2.058594 9.308594 0 25.363281 0 25.363281 L 16.046875 28.390625 L 24.742188 26.5 C 24.742188 26.484375 21.6875 5.695312 21.671875 5.542969 Z M 15.152344 3.9375 C 14.753906 4.074219 14.289062 4.207031 13.789062 4.359375 L 13.789062 4.054688 C 13.789062 3.152344 13.65625 2.417969 13.457031 1.847656 C 14.273438 1.964844 14.820312 2.886719 15.152344 3.9375 Z M 12.480469 2.03125 C 12.695312 2.601562 12.84375 3.40625 12.84375 4.492188 L 12.84375 4.640625 C 11.964844 4.90625 11.003906 5.210938 10.039062 5.511719 C 10.589844 3.4375 11.601562 2.417969 12.480469 2.03125 Z M 11.398438 1.011719 C 11.550781 1.011719 11.71875 1.0625 11.867188 1.164062 C 10.703125 1.714844 9.460938 3.101562 8.929688 5.878906 C 8.164062 6.113281 7.402344 6.347656 6.703125 6.566406 C 7.335938 4.457031 8.796875 1.011719 11.398438 1.011719 Z M 11.398438 1.011719 "/>
<path style=" stroke:none;fill-rule:nonzero;fill:rgb(36.862745%,55.686275%,24.313725%);fill-opacity:1;" d="M 21.425781 5.3125 C 21.324219 5.292969 19.148438 5.144531 19.148438 5.144531 C 19.148438 5.144531 17.640625 3.636719 17.492188 3.46875 C 17.425781 3.40625 17.34375 3.371094 17.257812 3.371094 L 16.046875 28.390625 L 24.742188 26.5 C 24.742188 26.5 21.6875 5.695312 21.671875 5.558594 C 21.65625 5.410156 21.523438 5.328125 21.425781 5.3125 Z M 21.425781 5.3125 "/>
<path style=" stroke:none;fill-rule:nonzero;fill:rgb(100%,100%,100%);fill-opacity:1;" d="M 13.09375 10.160156 L 12.015625 13.371094 C 12.015625 13.371094 11.070312 12.871094 9.925781 12.871094 C 8.230469 12.871094 8.148438 13.941406 8.148438 14.207031 C 8.148438 15.679688 11.949219 16.230469 11.949219 19.675781 C 11.949219 22.386719 10.238281 24.125 7.949219 24.125 C 5.195312 24.125 3.78125 22.402344 3.78125 22.402344 L 4.515625 19.945312 C 4.515625 19.945312 5.957031 21.199219 7.183594 21.199219 C 7.980469 21.199219 8.316406 20.5625 8.316406 20.09375 C 8.316406 18.171875 5.195312 18.089844 5.195312 14.945312 C 5.195312 12.300781 7.085938 9.726562 10.886719 9.726562 C 12.378906 9.742188 13.09375 10.160156 13.09375 10.160156 Z M 13.09375 10.160156 "/>
<path style=" stroke:none;fill-rule:nonzero;fill:rgb(0%,0%,0%);fill-opacity:1;" d="M 34.882812 16.183594 C 34.019531 15.714844 33.574219 15.3125 33.574219 14.761719 C 33.574219 14.058594 34.1875 13.605469 35.164062 13.605469 C 36.292969 13.605469 37.289062 14.074219 37.289062 14.074219 L 38.085938 11.632812 C 38.085938 11.632812 37.355469 11.0625 35.214844 11.0625 C 32.226562 11.0625 30.15625 12.785156 30.15625 15.210938 C 30.15625 16.582031 31.117188 17.636719 32.410156 18.390625 C 33.457031 18.992188 33.820312 19.410156 33.820312 20.046875 C 33.820312 20.699219 33.308594 21.214844 32.328125 21.214844 C 30.882812 21.214844 29.523438 20.464844 29.523438 20.464844 L 28.675781 22.90625 C 28.675781 22.90625 29.9375 23.757812 32.046875 23.757812 C 35.117188 23.757812 37.320312 22.234375 37.320312 19.492188 C 37.339844 18.003906 36.226562 16.96875 34.882812 16.183594 Z M 47.128906 11.046875 C 45.621094 11.046875 44.425781 11.765625 43.511719 12.871094 L 43.460938 12.855469 L 44.773438 5.929688 L 41.355469 5.929688 L 38.035156 23.542969 L 41.457031 23.542969 L 42.601562 17.519531 C 43.046875 15.246094 44.210938 13.839844 45.304688 13.839844 C 46.066406 13.839844 46.367188 14.359375 46.367188 15.113281 C 46.367188 15.582031 46.316406 16.164062 46.21875 16.632812 L 44.921875 23.523438 L 48.34375 23.523438 L 49.6875 16.398438 C 49.835938 15.644531 49.933594 14.742188 49.933594 14.15625 C 49.917969 12.21875 48.90625 11.046875 47.128906 11.046875 Z M 57.652344 11.046875 C 53.535156 11.046875 50.8125 14.792969 50.8125 18.957031 C 50.8125 21.636719 52.457031 23.773438 55.527344 23.773438 C 59.558594 23.773438 62.300781 20.128906 62.300781 15.863281 C 62.300781 13.386719 60.855469 11.046875 57.652344 11.046875 Z M 55.976562 21.132812 C 54.816406 21.132812 54.316406 20.128906 54.316406 18.890625 C 54.316406 16.917969 55.328125 13.691406 57.1875 13.691406 C 58.398438 13.691406 58.796875 14.742188 58.796875 15.761719 C 58.796875 17.886719 57.785156 21.132812 55.976562 21.132812 Z M 71.042969 11.046875 C 68.738281 11.046875 67.425781 13.085938 67.425781 13.085938 L 67.378906 13.085938 L 67.574219 11.25 L 64.554688 11.25 C 64.40625 12.503906 64.140625 14.390625 63.859375 15.8125 L 61.484375 28.425781 L 64.886719 28.425781 L 65.832031 23.324219 L 65.898438 23.324219 C 65.898438 23.324219 66.597656 23.773438 67.90625 23.773438 C 71.921875 23.773438 74.546875 19.625 74.546875 15.429688 C 74.5625 13.121094 73.53125 11.046875 71.042969 11.046875 Z M 67.777344 21.183594 C 66.878906 21.183594 66.363281 20.683594 66.363281 20.683594 L 66.925781 17.453125 C 67.324219 15.3125 68.4375 13.871094 69.632812 13.871094 C 70.679688 13.871094 70.992188 14.84375 70.992188 15.761719 C 70.992188 18.003906 69.683594 21.183594 67.777344 21.183594 Z M 79.441406 6.097656 C 78.347656 6.097656 77.480469 6.964844 77.480469 8.085938 C 77.480469 9.105469 78.128906 9.808594 79.09375 9.808594 L 79.140625 9.808594 C 80.203125 9.808594 81.117188 9.089844 81.148438 7.820312 C 81.148438 6.816406 80.488281 6.097656 79.441406 6.097656 Z M 74.660156 23.523438 L 78.082031 23.523438 L 80.402344 11.3125 L 76.96875 11.3125 M 89.101562 11.296875 L 86.726562 11.296875 L 86.84375 10.730469 C 87.042969 9.558594 87.738281 8.503906 88.867188 8.503906 C 89.480469 8.503906 89.960938 8.671875 89.960938 8.671875 L 90.625 5.980469 C 90.625 5.980469 90.027344 5.679688 88.765625 5.679688 C 87.554688 5.679688 86.34375 6.027344 85.414062 6.832031 C 84.253906 7.835938 83.707031 9.273438 83.441406 10.730469 L 83.339844 11.296875 L 81.75 11.296875 L 81.25 13.890625 L 82.84375 13.890625 L 81.035156 23.523438 L 84.46875 23.523438 L 86.277344 13.890625 L 88.636719 13.890625 Z M 97.332031 11.3125 C 97.332031 11.3125 95.191406 16.75 94.226562 19.710938 L 94.179688 19.710938 C 94.109375 18.757812 93.332031 11.3125 93.332031 11.3125 L 89.730469 11.3125 L 91.789062 22.519531 C 91.835938 22.773438 91.804688 22.921875 91.71875 23.089844 C 91.324219 23.859375 90.660156 24.609375 89.863281 25.164062 C 89.214844 25.632812 88.503906 25.933594 87.9375 26.132812 L 88.882812 29.058594 C 89.582031 28.910156 91.007812 28.339844 92.234375 27.1875 C 93.796875 25.714844 95.238281 23.441406 96.71875 20.347656 L 100.898438 11.3125 Z M 97.332031 11.3125 "/>
</g>
</svg>
